<?xml version="1.0" standalone="no"?><svg xmlns:xlink="http://www.w3.org/1999/xlink" xmlns="http://www.w3.org/2000/svg" viewBox="0 0 1000 687.4936811242543" preserveAspectRatio="xMaxYMax slice"><g transform="scale(0.842516766083645)"><rect x="0" y="0" width="1261.0909090909092" height="816" fill="#febd2f"/><g transform="translate(0,0) scale(3.7090000000000005) rotate(0)"><rect width="2" height="20" fill="#f9d688"/><rect x="4" width="2" height="20" fill="#f9d688"/><rect x="8" width="2" height="20" fill="#f9d688"/><rect x="12" width="2" height="20" fill="#f9d688"/><rect x="16" width="2" height="20" fill="#f9d688"/></g><g transform="translate(74.18,0) scale(3.7090000000000005) rotate(0)"><rect width="20" height="2" fill="#fd7f52"/><rect y="4" width="20" height="2" fill="#fd7f52"/><rect y="8" width="20" height="2" fill="#fd7f52"/><rect y="12" width="20" height="2" fill="#fd7f52"/><rect y="16" width="20" height="2" fill="#fd7f52"/></g><rect x="370.90909090909093" y="0" width="74.18181818181819" height="74.18181818181819" fill="#febd2f"/><g transform="translate(370.91,0) scale(1.8545000000000003) rotate(0)"><rect width="2" height="20" fill="#f9d891"/><rect x="4" width="2" height="20" fill="#f9d891"/><rect x="8" width="2" height="20" fill="#f9d891"/><rect x="12" width="2" height="20" fill="#f9d891"/><rect x="16" width="2" height="20" fill="#f9d891"/></g><rect x="370.91" y="37.09" width="37.09" height="37.09" fill="#feb434"/><rect x="408" y="37.09" width="37.09" height="37.09" fill="#f7e5be"/><g transform="translate(445.09,0) scale(3.7090000000000005) rotate(0)"><rect width="20" height="2" fill="#f5eddc"/><rect y="4" width="20" height="2" fill="#f5eddc"/><rect y="8" width="20" height="2" fill="#f5eddc"/><rect y="12" width="20" height="2" fill="#f5eddc"/><rect y="16" width="20" height="2" fill="#f5eddc"/></g><g transform="translate(667.64,0) scale(3.7090000000000005) rotate(0)"><rect width="20" height="2" fill="#fd7458"/><rect y="4" width="20" height="2" fill="#fd7458"/><rect y="8" width="20" height="2" fill="#fd7458"/><rect y="12" width="20" height="2" fill="#fd7458"/><rect y="16" width="20" height="2" fill="#fd7458"/></g><rect x="741.8181818181819" y="0" width="74.18181818181819" height="74.18181818181819" fill="#febd2f"/><g transform="translate(741.82,0) scale(1.8545000000000003) rotate(0)"><rect width="2" height="20" fill="#f9d890"/><rect x="4" width="2" height="20" fill="#f9d890"/><rect x="8" width="2" height="20" fill="#f9d890"/><rect x="12" width="2" height="20" fill="#f9d890"/><rect x="16" width="2" height="20" fill="#f9d890"/></g><g transform="translate(778.91,0) scale(1.8545000000000003) rotate(0)"><rect width="20" height="2" fill="#feb235"/><rect y="4" width="20" height="2" fill="#feb235"/><rect y="8" width="20" height="2" fill="#feb235"/><rect y="12" width="20" height="2" fill="#feb235"/><rect y="16" width="20" height="2" fill="#feb235"/></g><g transform="translate(778.91,37.09) scale(1.8545000000000003) rotate(0)"><rect width="2" height="20" fill="#f6e8cc"/><rect x="4" width="2" height="20" fill="#f6e8cc"/><rect x="8" width="2" height="20" fill="#f6e8cc"/><rect x="12" width="2" height="20" fill="#f6e8cc"/><rect x="16" width="2" height="20" fill="#f6e8cc"/></g><rect x="816" y="0" width="74.18" height="74.18" fill="#f8db9b"/><g transform="translate(890.18,0) scale(3.7090000000000005) rotate(0)"><rect width="2" height="20" fill="#fd8a4c"/><rect x="4" width="2" height="20" fill="#fd8a4c"/><rect x="8" width="2" height="20" fill="#fd8a4c"/><rect x="12" width="2" height="20" fill="#fd8a4c"/><rect x="16" width="2" height="20" fill="#fd8a4c"/></g><rect x="964.3636363636365" y="0" width="74.18181818181819" height="74.18181818181819" fill="#febd2f"/><g transform="translate(964.36,0) scale(1.8545000000000003) rotate(0)"><rect width="20" height="2" fill="#fd7855"/><rect y="4" width="20" height="2" fill="#fd7855"/><rect y="8" width="20" height="2" fill="#fd7855"/><rect y="12" width="20" height="2" fill="#fd7855"/><rect y="16" width="20" height="2" fill="#fd7855"/></g><g transform="translate(964.36,37.09) scale(1.8545000000000003) rotate(0)"><rect width="20" height="2" fill="#fdc23f"/><rect y="4" width="20" height="2" fill="#fdc23f"/><rect y="8" width="20" height="2" fill="#fdc23f"/><rect y="12" width="20" height="2" fill="#fdc23f"/><rect y="16" width="20" height="2" fill="#fdc23f"/></g><g transform="translate(1001.45,37.09) scale(1.8545000000000003) rotate(0)"><rect width="2" height="20" fill="#fea83b"/><rect x="4" width="2" height="20" fill="#fea83b"/><rect x="8" width="2" height="20" fill="#fea83b"/><rect x="12" width="2" height="20" fill="#fea83b"/><rect x="16" width="2" height="20" fill="#fea83b"/></g><rect x="1112.73" y="0" width="74.18" height="74.18" fill="#feac38"/><g transform="translate(1186.91,0) scale(3.7090000000000005) rotate(0)"><rect width="2" height="20" fill="#fd9744"/><rect x="4" width="2" height="20" fill="#fd9744"/><rect x="8" width="2" height="20" fill="#fd9744"/><rect x="12" width="2" height="20" fill="#fd9744"/><rect x="16" width="2" height="20" fill="#fd9744"/></g><rect x="0" y="74.18181818181819" width="74.18181818181819" height="74.18181818181819" fill="#febd2f"/><rect x="37.09" y="74.18" width="37.09" height="37.09" fill="#fd7458"/><rect x="0" y="111.27" width="37.09" height="37.09" fill="#fd844f"/><rect x="37.09" y="111.27" width="37.09" height="37.09" fill="#fea53c"/><rect x="74.18" y="74.18" width="74.18" height="74.18" fill="#fea63c"/><rect x="148.36363636363637" y="74.18181818181819" width="74.18181818181819" height="74.18181818181819" fill="#febd2f"/><g transform="translate(185.45,74.18) scale(1.8545000000000003) rotate(0)"><rect width="20" height="2" fill="#febf36"/><rect y="4" width="20" height="2" fill="#febf36"/><rect y="8" width="20" height="2" fill="#febf36"/><rect y="12" width="20" height="2" fill="#febf36"/><rect y="16" width="20" height="2" fill="#febf36"/></g><g transform="translate(148.36,111.27) scale(1.8545000000000003) rotate(0)"><rect width="20" height="2" fill="#f7e3b8"/><rect y="4" width="20" height="2" fill="#f7e3b8"/><rect y="8" width="20" height="2" fill="#f7e3b8"/><rect y="12" width="20" height="2" fill="#f7e3b8"/><rect y="16" width="20" height="2" fill="#f7e3b8"/></g><g transform="translate(222.55,74.18) scale(3.7090000000000005) rotate(0)"><rect width="2" height="20" fill="#fea73c"/><rect x="4" width="2" height="20" fill="#fea73c"/><rect x="8" width="2" height="20" fill="#fea73c"/><rect x="12" width="2" height="20" fill="#fea73c"/><rect x="16" width="2" height="20" fill="#fea73c"/></g><rect x="296.73" y="74.18" width="74.18" height="74.18" fill="#f8dca0"/><rect x="445.0909090909091" y="74.18181818181819" width="74.18181818181819" height="74.18181818181819" fill="#febd2f"/><g transform="translate(445.09,74.18) scale(1.8545000000000003) rotate(0)"><rect width="2" height="20" fill="#f8dca0"/><rect x="4" width="2" height="20" fill="#f8dca0"/><rect x="8" width="2" height="20" fill="#f8dca0"/><rect x="12" width="2" height="20" fill="#f8dca0"/><rect x="16" width="2" height="20" fill="#f8dca0"/></g><g transform="translate(482.18,74.18) scale(1.8545000000000003) rotate(0)"><rect width="2" height="20" fill="#f4f1ea"/><rect x="4" width="2" height="20" fill="#f4f1ea"/><rect x="8" width="2" height="20" fill="#f4f1ea"/><rect x="12" width="2" height="20" fill="#f4f1ea"/><rect x="16" width="2" height="20" fill="#f4f1ea"/></g><g transform="translate(445.09,111.27) scale(1.8545000000000003) rotate(0)"><rect width="2" height="20" fill="#fad37d"/><rect x="4" width="2" height="20" fill="#fad37d"/><rect x="8" width="2" height="20" fill="#fad37d"/><rect x="12" width="2" height="20" fill="#fad37d"/><rect x="16" width="2" height="20" fill="#fad37d"/></g><rect x="482.18" y="111.27" width="37.09" height="37.09" fill="#fea63c"/><rect x="667.6363636363637" y="74.18181818181819" width="74.18181818181819" height="74.18181818181819" fill="#febd2f"/><g transform="translate(704.73,74.18) scale(1.8545000000000003) rotate(0)"><rect width="20" height="2" fill="#fdc345"/><rect y="4" width="20" height="2" fill="#fdc345"/><rect y="8" width="20" height="2" fill="#fdc345"/><rect y="12" width="20" height="2" fill="#fdc345"/><rect y="16" width="20" height="2" fill="#fdc345"/></g><g transform="translate(704.73,111.27) scale(1.8545000000000003) rotate(0)"><rect width="2" height="20" fill="#fd9347"/><rect x="4" width="2" height="20" fill="#fd9347"/><rect x="8" width="2" height="20" fill="#fd9347"/><rect x="12" width="2" height="20" fill="#fd9347"/><rect x="16" width="2" height="20" fill="#fd9347"/></g><rect x="741.82" y="74.18" width="74.18" height="74.18" fill="#fbce6c"/><rect x="816" y="74.18181818181819" width="74.18181818181819" height="74.18181818181819" fill="#febd2f"/><g transform="translate(816,74.18) scale(1.8545000000000003) rotate(0)"><rect width="2" height="20" fill="#fd9744"/><rect x="4" width="2" height="20" fill="#fd9744"/><rect x="8" width="2" height="20" fill="#fd9744"/><rect x="12" width="2" height="20" fill="#fd9744"/><rect x="16" width="2" height="20" fill="#fd9744"/></g><rect x="816" y="111.27" width="37.09" height="37.09" fill="#fd8a4c"/><g transform="translate(853.09,111.27) scale(1.8545000000000003) rotate(0)"><rect width="20" height="2" fill="#fea63c"/><rect y="4" width="20" height="2" fill="#fea63c"/><rect y="8" width="20" height="2" fill="#fea63c"/><rect y="12" width="20" height="2" fill="#fea63c"/><rect y="16" width="20" height="2" fill="#fea63c"/></g><rect x="890.1818181818182" y="74.18181818181819" width="74.18181818181819" height="74.18181818181819" fill="#febd2f"/><g transform="translate(890.18,74.18) scale(1.8545000000000003) rotate(0)"><rect width="20" height="2" fill="#fea43d"/><rect y="4" width="20" height="2" fill="#fea43d"/><rect y="8" width="20" height="2" fill="#fea43d"/><rect y="12" width="20" height="2" fill="#fea43d"/><rect y="16" width="20" height="2" fill="#fea43d"/></g><rect x="927.27" y="74.18" width="37.09" height="37.09" fill="#fdc344"/><g transform="translate(927.27,111.27) scale(1.8545000000000003) rotate(0)"><rect width="2" height="20" fill="#fad27b"/><rect x="4" width="2" height="20" fill="#fad27b"/><rect x="8" width="2" height="20" fill="#fad27b"/><rect x="12" width="2" height="20" fill="#fad27b"/><rect x="16" width="2" height="20" fill="#fad27b"/></g><rect x="964.36" y="74.18" width="74.18" height="74.18" fill="#fbcf6f"/><g transform="translate(1038.55,74.18) scale(3.7090000000000005) rotate(0)"><rect width="20" height="2" fill="#fdc039"/><rect y="4" width="20" height="2" fill="#fdc039"/><rect y="8" width="20" height="2" fill="#fdc039"/><rect y="12" width="20" height="2" fill="#fdc039"/><rect y="16" width="20" height="2" fill="#fdc039"/></g><g transform="translate(1112.73,74.18) scale(3.7090000000000005) rotate(0)"><rect width="2" height="20" fill="#fe9b42"/><rect x="4" width="2" height="20" fill="#fe9b42"/><rect x="8" width="2" height="20" fill="#fe9b42"/><rect x="12" width="2" height="20" fill="#fe9b42"/><rect x="16" width="2" height="20" fill="#fe9b42"/></g><g transform="translate(0,148.36) scale(3.7090000000000005) rotate(0)"><rect width="20" height="2" fill="#fbca60"/><rect y="4" width="20" height="2" fill="#fbca60"/><rect y="8" width="20" height="2" fill="#fbca60"/><rect y="12" width="20" height="2" fill="#fbca60"/><rect y="16" width="20" height="2" fill="#fbca60"/></g><rect x="74.18" y="148.36" width="74.18" height="74.18" fill="#fd7f52"/><rect x="148.36" y="148.36" width="74.18" height="74.18" fill="#fcc54c"/><g transform="translate(296.73,148.36) scale(3.7090000000000005) rotate(0)"><rect width="20" height="2" fill="#fd9744"/><rect y="4" width="20" height="2" fill="#fd9744"/><rect y="8" width="20" height="2" fill="#fd9744"/><rect y="12" width="20" height="2" fill="#fd9744"/><rect y="16" width="20" height="2" fill="#fd9744"/></g><g transform="translate(370.91,148.36) scale(3.7090000000000005) rotate(0)"><rect width="2" height="20" fill="#fbcc64"/><rect x="4" width="2" height="20" fill="#fbcc64"/><rect x="8" width="2" height="20" fill="#fbcc64"/><rect x="12" width="2" height="20" fill="#fbcc64"/><rect x="16" width="2" height="20" fill="#fbcc64"/></g><rect x="445.09" y="148.36" width="74.18" height="74.18" fill="#fd884d"/><g transform="translate(519.27,148.36) scale(3.7090000000000005) rotate(0)"><rect width="20" height="2" fill="#fe9943"/><rect y="4" width="20" height="2" fill="#fe9943"/><rect y="8" width="20" height="2" fill="#fe9943"/><rect y="12" width="20" height="2" fill="#fe9943"/><rect y="16" width="20" height="2" fill="#fe9943"/></g><g transform="translate(667.64,148.36) scale(3.7090000000000005) rotate(0)"><rect width="2" height="20" fill="#f8dfa9"/><rect x="4" width="2" height="20" fill="#f8dfa9"/><rect x="8" width="2" height="20" fill="#f8dfa9"/><rect x="12" width="2" height="20" fill="#f8dfa9"/><rect x="16" width="2" height="20" fill="#f8dfa9"/></g><g transform="translate(816,148.36) scale(3.7090000000000005) rotate(0)"><rect width="2" height="20" fill="#fd8250"/><rect x="4" width="2" height="20" fill="#fd8250"/><rect x="8" width="2" height="20" fill="#fd8250"/><rect x="12" width="2" height="20" fill="#fd8250"/><rect x="16" width="2" height="20" fill="#fd8250"/></g><rect x="1038.5454545454545" y="148.36363636363637" width="74.18181818181819" height="74.18181818181819" fill="#febd2f"/><g transform="translate(1038.55,148.36) scale(1.8545000000000003) rotate(0)"><rect width="2" height="20" fill="#febc30"/><rect x="4" width="2" height="20" fill="#febc30"/><rect x="8" width="2" height="20" fill="#febc30"/><rect x="12" width="2" height="20" fill="#febc30"/><rect x="16" width="2" height="20" fill="#febc30"/></g><g transform="translate(1038.55,185.45) scale(1.8545000000000003) rotate(0)"><rect width="20" height="2" fill="#fea23e"/><rect y="4" width="20" height="2" fill="#fea23e"/><rect y="8" width="20" height="2" fill="#fea23e"/><rect y="12" width="20" height="2" fill="#fea23e"/><rect y="16" width="20" height="2" fill="#fea23e"/></g><rect x="1112.73" y="148.36" width="74.18" height="74.18" fill="#f8dfa9"/><g transform="translate(1186.91,148.36) scale(3.7090000000000005) rotate(0)"><rect width="20" height="2" fill="#fea23e"/><rect y="4" width="20" height="2" fill="#fea23e"/><rect y="8" width="20" height="2" fill="#fea23e"/><rect y="12" width="20" height="2" fill="#fea23e"/><rect y="16" width="20" height="2" fill="#fea23e"/></g><g transform="translate(0,222.55) scale(3.7090000000000005) rotate(0)"><rect width="20" height="2" fill="#fd7b54"/><rect y="4" width="20" height="2" fill="#fd7b54"/><rect y="8" width="20" height="2" fill="#fd7b54"/><rect y="12" width="20" height="2" fill="#fd7b54"/><rect y="16" width="20" height="2" fill="#fd7b54"/></g><g transform="translate(74.18,222.55) scale(3.7090000000000005) rotate(0)"><rect width="2" height="20" fill="#fe9c41"/><rect x="4" width="2" height="20" fill="#fe9c41"/><rect x="8" width="2" height="20" fill="#fe9c41"/><rect x="12" width="2" height="20" fill="#fe9c41"/><rect x="16" width="2" height="20" fill="#fe9c41"/></g><g transform="translate(148.36,222.55) scale(3.7090000000000005) rotate(0)"><rect width="2" height="20" fill="#f6e9cf"/><rect x="4" width="2" height="20" fill="#f6e9cf"/><rect x="8" width="2" height="20" fill="#f6e9cf"/><rect x="12" width="2" height="20" fill="#f6e9cf"/><rect x="16" width="2" height="20" fill="#f6e9cf"/></g><g transform="translate(370.91,222.55) scale(3.7090000000000005) rotate(0)"><rect width="20" height="2" fill="#f4f1ea"/><rect y="4" width="20" height="2" fill="#f4f1ea"/><rect y="8" width="20" height="2" fill="#f4f1ea"/><rect y="12" width="20" height="2" fill="#f4f1ea"/><rect y="16" width="20" height="2" fill="#f4f1ea"/></g><rect x="445.09" y="222.55" width="74.18" height="74.18" fill="#feb235"/><g transform="translate(519.27,222.55) scale(3.7090000000000005) rotate(0)"><rect width="20" height="2" fill="#fd874d"/><rect y="4" width="20" height="2" fill="#fd874d"/><rect y="8" width="20" height="2" fill="#fd874d"/><rect y="12" width="20" height="2" fill="#fd874d"/><rect y="16" width="20" height="2" fill="#fd874d"/></g><rect x="667.6363636363637" y="222.54545454545456" width="74.18181818181819" height="74.18181818181819" fill="#febd2f"/><g transform="translate(704.73,259.64) scale(1.8545000000000003) rotate(0)"><rect width="2" height="20" fill="#fbcf6f"/><rect x="4" width="2" height="20" fill="#fbcf6f"/><rect x="8" width="2" height="20" fill="#fbcf6f"/><rect x="12" width="2" height="20" fill="#fbcf6f"/><rect x="16" width="2" height="20" fill="#fbcf6f"/></g><g transform="translate(741.82,222.55) scale(3.7090000000000005) rotate(0)"><rect width="2" height="20" fill="#f5eee1"/><rect x="4" width="2" height="20" fill="#f5eee1"/><rect x="8" width="2" height="20" fill="#f5eee1"/><rect x="12" width="2" height="20" fill="#f5eee1"/><rect x="16" width="2" height="20" fill="#f5eee1"/></g><g transform="translate(890.18,222.55) scale(3.7090000000000005) rotate(0)"><rect width="2" height="20" fill="#feaa3a"/><rect x="4" width="2" height="20" fill="#feaa3a"/><rect x="8" width="2" height="20" fill="#feaa3a"/><rect x="12" width="2" height="20" fill="#feaa3a"/><rect x="16" width="2" height="20" fill="#feaa3a"/></g><g transform="translate(964.36,222.55) scale(3.7090000000000005) rotate(0)"><rect width="20" height="2" fill="#fea83b"/><rect y="4" width="20" height="2" fill="#fea83b"/><rect y="8" width="20" height="2" fill="#fea83b"/><rect y="12" width="20" height="2" fill="#fea83b"/><rect y="16" width="20" height="2" fill="#fea83b"/></g><rect x="1038.5454545454545" y="222.54545454545456" width="74.18181818181819" height="74.18181818181819" fill="#febd2f"/><g transform="translate(1075.64,259.64) scale(1.8545000000000003) rotate(0)"><rect width="20" height="2" fill="#fd9446"/><rect y="4" width="20" height="2" fill="#fd9446"/><rect y="8" width="20" height="2" fill="#fd9446"/><rect y="12" width="20" height="2" fill="#fd9446"/><rect y="16" width="20" height="2" fill="#fd9446"/></g><rect x="1112.7272727272727" y="222.54545454545456" width="74.18181818181819" height="74.18181818181819" fill="#febd2f"/><rect x="1112.73" y="222.55" width="37.09" height="37.09" fill="#fd8e49"/><g transform="translate(1112.73,259.64) scale(1.8545000000000003) rotate(0)"><rect width="2" height="20" fill="#fd864e"/><rect x="4" width="2" height="20" fill="#fd864e"/><rect x="8" width="2" height="20" fill="#fd864e"/><rect x="12" width="2" height="20" fill="#fd864e"/><rect x="16" width="2" height="20" fill="#fd864e"/></g><g transform="translate(1149.82,259.64) scale(1.8545000000000003) rotate(0)"><rect width="20" height="2" fill="#fd7955"/><rect y="4" width="20" height="2" fill="#fd7955"/><rect y="8" width="20" height="2" fill="#fd7955"/><rect y="12" width="20" height="2" fill="#fd7955"/><rect y="16" width="20" height="2" fill="#fd7955"/></g><g transform="translate(1186.91,222.55) scale(3.7090000000000005) rotate(0)"><rect width="20" height="2" fill="#fcc855"/><rect y="4" width="20" height="2" fill="#fcc855"/><rect y="8" width="20" height="2" fill="#fcc855"/><rect y="12" width="20" height="2" fill="#fcc855"/><rect y="16" width="20" height="2" fill="#fcc855"/></g><rect x="74.18" y="296.73" width="74.18" height="74.18" fill="#f8dfaa"/><g transform="translate(148.36,296.73) scale(3.7090000000000005) rotate(0)"><rect width="2" height="20" fill="#fd7e52"/><rect x="4" width="2" height="20" fill="#fd7e52"/><rect x="8" width="2" height="20" fill="#fd7e52"/><rect x="12" width="2" height="20" fill="#fd7e52"/><rect x="16" width="2" height="20" fill="#fd7e52"/></g><g transform="translate(296.73,296.73) scale(3.7090000000000005) rotate(0)"><rect width="2" height="20" fill="#fd9545"/><rect x="4" width="2" height="20" fill="#fd9545"/><rect x="8" width="2" height="20" fill="#fd9545"/><rect x="12" width="2" height="20" fill="#fd9545"/><rect x="16" width="2" height="20" fill="#fd9545"/></g><g transform="translate(445.09,296.73) scale(3.7090000000000005) rotate(0)"><rect width="2" height="20" fill="#fd864e"/><rect x="4" width="2" height="20" fill="#fd864e"/><rect x="8" width="2" height="20" fill="#fd864e"/><rect x="12" width="2" height="20" fill="#fd864e"/><rect x="16" width="2" height="20" fill="#fd864e"/></g><rect x="519.27" y="296.73" width="74.18" height="74.18" fill="#fd8d4a"/><rect x="667.64" y="296.73" width="74.18" height="74.18" fill="#fead38"/><rect x="890.18" y="296.73" width="74.18" height="74.18" fill="#fdc241"/><rect x="1038.55" y="296.73" width="74.18" height="74.18" fill="#f7e3b9"/><g transform="translate(1112.73,296.73) scale(3.7090000000000005) rotate(0)"><rect width="20" height="2" fill="#fd8b4b"/><rect y="4" width="20" height="2" fill="#fd8b4b"/><rect y="8" width="20" height="2" fill="#fd8b4b"/><rect y="12" width="20" height="2" fill="#fd8b4b"/><rect y="16" width="20" height="2" fill="#fd8b4b"/></g><rect x="1186.91" y="296.73" width="74.18" height="74.18" fill="#fad178"/><g transform="translate(74.18,370.91) scale(3.7090000000000005) rotate(0)"><rect width="20" height="2" fill="#febd31"/><rect y="4" width="20" height="2" fill="#febd31"/><rect y="8" width="20" height="2" fill="#febd31"/><rect y="12" width="20" height="2" fill="#febd31"/><rect y="16" width="20" height="2" fill="#febd31"/></g><rect x="148.36" y="370.91" width="74.18" height="74.18" fill="#fea13f"/><rect x="222.55" y="370.91" width="74.18" height="74.18" fill="#fad482"/><g transform="translate(519.27,370.91) scale(3.7090000000000005) rotate(0)"><rect width="20" height="2" fill="#f9d78c"/><rect y="4" width="20" height="2" fill="#f9d78c"/><rect y="8" width="20" height="2" fill="#f9d78c"/><rect y="12" width="20" height="2" fill="#f9d78c"/><rect y="16" width="20" height="2" fill="#f9d78c"/></g><rect x="741.8181818181819" y="370.90909090909093" width="74.18181818181819" height="74.18181818181819" fill="#febd2f"/><g transform="translate(741.82,370.91) scale(1.8545000000000003) rotate(0)"><rect width="2" height="20" fill="#f8dea6"/><rect x="4" width="2" height="20" fill="#f8dea6"/><rect x="8" width="2" height="20" fill="#f8dea6"/><rect x="12" width="2" height="20" fill="#f8dea6"/><rect x="16" width="2" height="20" fill="#f8dea6"/></g><g transform="translate(778.91,370.91) scale(1.8545000000000003) rotate(0)"><rect width="20" height="2" fill="#fd8151"/><rect y="4" width="20" height="2" fill="#fd8151"/><rect y="8" width="20" height="2" fill="#fd8151"/><rect y="12" width="20" height="2" fill="#fd8151"/><rect y="16" width="20" height="2" fill="#fd8151"/></g><g transform="translate(816,370.91) scale(3.7090000000000005) rotate(0)"><rect width="2" height="20" fill="#fcc651"/><rect x="4" width="2" height="20" fill="#fcc651"/><rect x="8" width="2" height="20" fill="#fcc651"/><rect x="12" width="2" height="20" fill="#fcc651"/><rect x="16" width="2" height="20" fill="#fcc651"/></g><g transform="translate(890.18,370.91) scale(3.7090000000000005) rotate(0)"><rect width="20" height="2" fill="#fd7c54"/><rect y="4" width="20" height="2" fill="#fd7c54"/><rect y="8" width="20" height="2" fill="#fd7c54"/><rect y="12" width="20" height="2" fill="#fd7c54"/><rect y="16" width="20" height="2" fill="#fd7c54"/></g><g transform="translate(1112.73,370.91) scale(3.7090000000000005) rotate(0)"><rect width="2" height="20" fill="#febb30"/><rect x="4" width="2" height="20" fill="#febb30"/><rect x="8" width="2" height="20" fill="#febb30"/><rect x="12" width="2" height="20" fill="#febb30"/><rect x="16" width="2" height="20" fill="#febb30"/></g><rect x="1186.91" y="370.91" width="74.18" height="74.18" fill="#f9d890"/><g transform="translate(0,445.09) scale(3.7090000000000005) rotate(0)"><rect width="2" height="20" fill="#f5eee0"/><rect x="4" width="2" height="20" fill="#f5eee0"/><rect x="8" width="2" height="20" fill="#f5eee0"/><rect x="12" width="2" height="20" fill="#f5eee0"/><rect x="16" width="2" height="20" fill="#f5eee0"/></g><rect x="74.18" y="445.09" width="74.18" height="74.18" fill="#fcc64e"/><g transform="translate(148.36,445.09) scale(3.7090000000000005) rotate(0)"><rect width="20" height="2" fill="#f5eddb"/><rect y="4" width="20" height="2" fill="#f5eddb"/><rect y="8" width="20" height="2" fill="#f5eddb"/><rect y="12" width="20" height="2" fill="#f5eddb"/><rect y="16" width="20" height="2" fill="#f5eddb"/></g><g transform="translate(222.55,445.09) scale(3.7090000000000005) rotate(0)"><rect width="2" height="20" fill="#fea73b"/><rect x="4" width="2" height="20" fill="#fea73b"/><rect x="8" width="2" height="20" fill="#fea73b"/><rect x="12" width="2" height="20" fill="#fea73b"/><rect x="16" width="2" height="20" fill="#fea73b"/></g><g transform="translate(296.73,445.09) scale(3.7090000000000005) rotate(0)"><rect width="2" height="20" fill="#fad074"/><rect x="4" width="2" height="20" fill="#fad074"/><rect x="8" width="2" height="20" fill="#fad074"/><rect x="12" width="2" height="20" fill="#fad074"/><rect x="16" width="2" height="20" fill="#fad074"/></g><rect x="370.91" y="445.09" width="74.18" height="74.18" fill="#fbcd69"/><rect x="445.0909090909091" y="445.0909090909091" width="74.18181818181819" height="74.18181818181819" fill="#febd2f"/><g transform="translate(445.09,445.09) scale(1.8545000000000003) rotate(0)"><rect width="2" height="20" fill="#fd8250"/><rect x="4" width="2" height="20" fill="#fd8250"/><rect x="8" width="2" height="20" fill="#fd8250"/><rect x="12" width="2" height="20" fill="#fd8250"/><rect x="16" width="2" height="20" fill="#fd8250"/></g><rect x="482.18" y="445.09" width="37.09" height="37.09" fill="#f9da98"/><rect x="445.09" y="482.18" width="37.09" height="37.09" fill="#febd30"/><g transform="translate(482.18,482.18) scale(1.8545000000000003) rotate(0)"><rect width="20" height="2" fill="#f9da96"/><rect y="4" width="20" height="2" fill="#f9da96"/><rect y="8" width="20" height="2" fill="#f9da96"/><rect y="12" width="20" height="2" fill="#f9da96"/><rect y="16" width="20" height="2" fill="#f9da96"/></g><g transform="translate(519.27,445.09) scale(3.7090000000000005) rotate(0)"><rect width="20" height="2" fill="#fdc13d"/><rect y="4" width="20" height="2" fill="#fdc13d"/><rect y="8" width="20" height="2" fill="#fdc13d"/><rect y="12" width="20" height="2" fill="#fdc13d"/><rect y="16" width="20" height="2" fill="#fdc13d"/></g><g transform="translate(890.18,445.09) scale(3.7090000000000005) rotate(0)"><rect width="20" height="2" fill="#feb832"/><rect y="4" width="20" height="2" fill="#feb832"/><rect y="8" width="20" height="2" fill="#feb832"/><rect y="12" width="20" height="2" fill="#feb832"/><rect y="16" width="20" height="2" fill="#feb832"/></g><g transform="translate(1038.55,445.09) scale(3.7090000000000005) rotate(0)"><rect width="2" height="20" fill="#fea53c"/><rect x="4" width="2" height="20" fill="#fea53c"/><rect x="8" width="2" height="20" fill="#fea53c"/><rect x="12" width="2" height="20" fill="#fea53c"/><rect x="16" width="2" height="20" fill="#fea53c"/></g><rect x="1112.73" y="445.09" width="74.18" height="74.18" fill="#fea13e"/><g transform="translate(74.18,519.27) scale(3.7090000000000005) rotate(0)"><rect width="2" height="20" fill="#f4f1eb"/><rect x="4" width="2" height="20" fill="#f4f1eb"/><rect x="8" width="2" height="20" fill="#f4f1eb"/><rect x="12" width="2" height="20" fill="#f4f1eb"/><rect x="16" width="2" height="20" fill="#f4f1eb"/></g><rect x="222.54545454545456" y="519.2727272727273" width="74.18181818181819" height="74.18181818181819" fill="#febd2f"/><g transform="translate(222.55,519.27) scale(1.8545000000000003) rotate(0)"><rect width="2" height="20" fill="#fd8b4b"/><rect x="4" width="2" height="20" fill="#fd8b4b"/><rect x="8" width="2" height="20" fill="#fd8b4b"/><rect x="12" width="2" height="20" fill="#fd8b4b"/><rect x="16" width="2" height="20" fill="#fd8b4b"/></g><rect x="259.64" y="519.27" width="37.09" height="37.09" fill="#fbcc67"/><g transform="translate(259.64,556.36) scale(1.8545000000000003) rotate(0)"><rect width="2" height="20" fill="#f6e6c2"/><rect x="4" width="2" height="20" fill="#f6e6c2"/><rect x="8" width="2" height="20" fill="#f6e6c2"/><rect x="12" width="2" height="20" fill="#f6e6c2"/><rect x="16" width="2" height="20" fill="#f6e6c2"/></g><rect x="519.2727272727273" y="519.2727272727273" width="74.18181818181819" height="74.18181818181819" fill="#febd2f"/><g transform="translate(519.27,519.27) scale(1.8545000000000003) rotate(0)"><rect width="2" height="20" fill="#fbcf71"/><rect x="4" width="2" height="20" fill="#fbcf71"/><rect x="8" width="2" height="20" fill="#fbcf71"/><rect x="12" width="2" height="20" fill="#fbcf71"/><rect x="16" width="2" height="20" fill="#fbcf71"/></g><g transform="translate(519.27,556.36) scale(1.8545000000000003) rotate(0)"><rect width="2" height="20" fill="#fdc344"/><rect x="4" width="2" height="20" fill="#fdc344"/><rect x="8" width="2" height="20" fill="#fdc344"/><rect x="12" width="2" height="20" fill="#fdc344"/><rect x="16" width="2" height="20" fill="#fdc344"/></g><g transform="translate(741.82,519.27) scale(3.7090000000000005) rotate(0)"><rect width="2" height="20" fill="#fcca5d"/><rect x="4" width="2" height="20" fill="#fcca5d"/><rect x="8" width="2" height="20" fill="#fcca5d"/><rect x="12" width="2" height="20" fill="#fcca5d"/><rect x="16" width="2" height="20" fill="#fcca5d"/></g><rect x="816" y="519.27" width="74.18" height="74.18" fill="#febb30"/><rect x="890.18" y="519.27" width="74.18" height="74.18" fill="#fdc54a"/><rect x="964.3636363636365" y="519.2727272727273" width="74.18181818181819" height="74.18181818181819" fill="#febd2f"/><g transform="translate(964.36,519.27) scale(1.8545000000000003) rotate(0)"><rect width="20" height="2" fill="#fd874d"/><rect y="4" width="20" height="2" fill="#fd874d"/><rect y="8" width="20" height="2" fill="#fd874d"/><rect y="12" width="20" height="2" fill="#fd874d"/><rect y="16" width="20" height="2" fill="#fd874d"/></g><g transform="translate(1001.45,519.27) scale(1.8545000000000003) rotate(0)"><rect width="20" height="2" fill="#fdc03a"/><rect y="4" width="20" height="2" fill="#fdc03a"/><rect y="8" width="20" height="2" fill="#fdc03a"/><rect y="12" width="20" height="2" fill="#fdc03a"/><rect y="16" width="20" height="2" fill="#fdc03a"/></g><rect x="964.36" y="556.36" width="37.09" height="37.09" fill="#fd894c"/><rect x="1038.55" y="519.27" width="74.18" height="74.18" fill="#fd864e"/><rect x="1112.73" y="519.27" width="74.18" height="74.18" fill="#fd8d4a"/><g transform="translate(1186.91,519.27) scale(3.7090000000000005) rotate(0)"><rect width="20" height="2" fill="#f7e2b3"/><rect y="4" width="20" height="2" fill="#f7e2b3"/><rect y="8" width="20" height="2" fill="#f7e2b3"/><rect y="12" width="20" height="2" fill="#f7e2b3"/><rect y="16" width="20" height="2" fill="#f7e2b3"/></g><rect x="0" y="593.4545454545455" width="74.18181818181819" height="74.18181818181819" fill="#febd2f"/><g transform="translate(0,593.45) scale(1.8545000000000003) rotate(0)"><rect width="2" height="20" fill="#feb832"/><rect x="4" width="2" height="20" fill="#feb832"/><rect x="8" width="2" height="20" fill="#feb832"/><rect x="12" width="2" height="20" fill="#feb832"/><rect x="16" width="2" height="20" fill="#feb832"/></g><g transform="translate(37.09,630.55) scale(1.8545000000000003) rotate(0)"><rect width="2" height="20" fill="#fad37e"/><rect x="4" width="2" height="20" fill="#fad37e"/><rect x="8" width="2" height="20" fill="#fad37e"/><rect x="12" width="2" height="20" fill="#fad37e"/><rect x="16" width="2" height="20" fill="#fad37e"/></g><g transform="translate(74.18,593.45) scale(3.7090000000000005) rotate(0)"><rect width="2" height="20" fill="#fd9446"/><rect x="4" width="2" height="20" fill="#fd9446"/><rect x="8" width="2" height="20" fill="#fd9446"/><rect x="12" width="2" height="20" fill="#fd9446"/><rect x="16" width="2" height="20" fill="#fd9446"/></g><g transform="translate(148.36,593.45) scale(3.7090000000000005) rotate(0)"><rect width="20" height="2" fill="#feb832"/><rect y="4" width="20" height="2" fill="#feb832"/><rect y="8" width="20" height="2" fill="#feb832"/><rect y="12" width="20" height="2" fill="#feb832"/><rect y="16" width="20" height="2" fill="#feb832"/></g><rect x="519.27" y="593.45" width="74.18" height="74.18" fill="#f6e8c8"/><g transform="translate(593.45,593.45) scale(3.7090000000000005) rotate(0)"><rect width="20" height="2" fill="#fd8051"/><rect y="4" width="20" height="2" fill="#fd8051"/><rect y="8" width="20" height="2" fill="#fd8051"/><rect y="12" width="20" height="2" fill="#fd8051"/><rect y="16" width="20" height="2" fill="#fd8051"/></g><rect x="667.6363636363637" y="593.4545454545455" width="74.18181818181819" height="74.18181818181819" fill="#febd2f"/><g transform="translate(704.73,630.55) scale(1.8545000000000003) rotate(0)"><rect width="20" height="2" fill="#feb434"/><rect y="4" width="20" height="2" fill="#feb434"/><rect y="8" width="20" height="2" fill="#feb434"/><rect y="12" width="20" height="2" fill="#feb434"/><rect y="16" width="20" height="2" fill="#feb434"/></g><g transform="translate(741.82,593.45) scale(3.7090000000000005) rotate(0)"><rect width="2" height="20" fill="#fe9c42"/><rect x="4" width="2" height="20" fill="#fe9c42"/><rect x="8" width="2" height="20" fill="#fe9c42"/><rect x="12" width="2" height="20" fill="#fe9c42"/><rect x="16" width="2" height="20" fill="#fe9c42"/></g><rect x="1038.5454545454545" y="593.4545454545455" width="74.18181818181819" height="74.18181818181819" fill="#febd2f"/><g transform="translate(1075.64,593.45) scale(1.8545000000000003) rotate(0)"><rect width="20" height="2" fill="#fd9545"/><rect y="4" width="20" height="2" fill="#fd9545"/><rect y="8" width="20" height="2" fill="#fd9545"/><rect y="12" width="20" height="2" fill="#fd9545"/><rect y="16" width="20" height="2" fill="#fd9545"/></g><rect x="1038.55" y="630.55" width="37.09" height="37.09" fill="#f4f1ea"/><rect x="1075.64" y="630.55" width="37.09" height="37.09" fill="#fd8051"/><rect x="1112.7272727272727" y="593.4545454545455" width="74.18181818181819" height="74.18181818181819" fill="#febd2f"/><g transform="translate(1149.82,593.45) scale(1.8545000000000003) rotate(0)"><rect width="20" height="2" fill="#fd7557"/><rect y="4" width="20" height="2" fill="#fd7557"/><rect y="8" width="20" height="2" fill="#fd7557"/><rect y="12" width="20" height="2" fill="#fd7557"/><rect y="16" width="20" height="2" fill="#fd7557"/></g><g transform="translate(1112.73,630.55) scale(1.8545000000000003) rotate(0)"><rect width="20" height="2" fill="#fd9645"/><rect y="4" width="20" height="2" fill="#fd9645"/><rect y="8" width="20" height="2" fill="#fd9645"/><rect y="12" width="20" height="2" fill="#fd9645"/><rect y="16" width="20" height="2" fill="#fd9645"/></g><g transform="translate(1149.82,630.55) scale(1.8545000000000003) rotate(0)"><rect width="2" height="20" fill="#fdc447"/><rect x="4" width="2" height="20" fill="#fdc447"/><rect x="8" width="2" height="20" fill="#fdc447"/><rect x="12" width="2" height="20" fill="#fdc447"/><rect x="16" width="2" height="20" fill="#fdc447"/></g><rect x="1186.909090909091" y="593.4545454545455" width="74.18181818181819" height="74.18181818181819" fill="#febd2f"/><rect x="1224" y="593.45" width="37.09" height="37.09" fill="#fbcf71"/><rect x="1186.91" y="630.55" width="37.09" height="37.09" fill="#fe9e41"/><g transform="translate(0,667.64) scale(3.7090000000000005) rotate(0)"><rect width="2" height="20" fill="#fd874d"/><rect x="4" width="2" height="20" fill="#fd874d"/><rect x="8" width="2" height="20" fill="#fd874d"/><rect x="12" width="2" height="20" fill="#fd874d"/><rect x="16" width="2" height="20" fill="#fd874d"/></g><g transform="translate(74.18,667.64) scale(3.7090000000000005) rotate(0)"><rect width="2" height="20" fill="#fd8150"/><rect x="4" width="2" height="20" fill="#fd8150"/><rect x="8" width="2" height="20" fill="#fd8150"/><rect x="12" width="2" height="20" fill="#fd8150"/><rect x="16" width="2" height="20" fill="#fd8150"/></g><rect x="296.72727272727275" y="667.6363636363637" width="74.18181818181819" height="74.18181818181819" fill="#febd2f"/><g transform="translate(296.73,667.64) scale(1.8545000000000003) rotate(0)"><rect width="2" height="20" fill="#fd8d4a"/><rect x="4" width="2" height="20" fill="#fd8d4a"/><rect x="8" width="2" height="20" fill="#fd8d4a"/><rect x="12" width="2" height="20" fill="#fd8d4a"/><rect x="16" width="2" height="20" fill="#fd8d4a"/></g><g transform="translate(333.82,667.64) scale(1.8545000000000003) rotate(0)"><rect width="2" height="20" fill="#fcc650"/><rect x="4" width="2" height="20" fill="#fcc650"/><rect x="8" width="2" height="20" fill="#fcc650"/><rect x="12" width="2" height="20" fill="#fcc650"/><rect x="16" width="2" height="20" fill="#fcc650"/></g><g transform="translate(296.73,704.73) scale(1.8545000000000003) rotate(0)"><rect width="20" height="2" fill="#fdc03a"/><rect y="4" width="20" height="2" fill="#fdc03a"/><rect y="8" width="20" height="2" fill="#fdc03a"/><rect y="12" width="20" height="2" fill="#fdc03a"/><rect y="16" width="20" height="2" fill="#fdc03a"/></g><g transform="translate(370.91,667.64) scale(3.7090000000000005) rotate(0)"><rect width="2" height="20" fill="#feae38"/><rect x="4" width="2" height="20" fill="#feae38"/><rect x="8" width="2" height="20" fill="#feae38"/><rect x="12" width="2" height="20" fill="#feae38"/><rect x="16" width="2" height="20" fill="#feae38"/></g><g transform="translate(445.09,667.64) scale(3.7090000000000005) rotate(0)"><rect width="20" height="2" fill="#fe9a42"/><rect y="4" width="20" height="2" fill="#fe9a42"/><rect y="8" width="20" height="2" fill="#fe9a42"/><rect y="12" width="20" height="2" fill="#fe9a42"/><rect y="16" width="20" height="2" fill="#fe9a42"/></g><rect x="519.27" y="667.64" width="74.18" height="74.18" fill="#f9d587"/><g transform="translate(593.45,667.64) scale(3.7090000000000005) rotate(0)"><rect width="2" height="20" fill="#febf36"/><rect x="4" width="2" height="20" fill="#febf36"/><rect x="8" width="2" height="20" fill="#febf36"/><rect x="12" width="2" height="20" fill="#febf36"/><rect x="16" width="2" height="20" fill="#febf36"/></g><rect x="741.8181818181819" y="667.6363636363637" width="74.18181818181819" height="74.18181818181819" fill="#febd2f"/><g transform="translate(778.91,667.64) scale(1.8545000000000003) rotate(0)"><rect width="2" height="20" fill="#feb534"/><rect x="4" width="2" height="20" fill="#feb534"/><rect x="8" width="2" height="20" fill="#feb534"/><rect x="12" width="2" height="20" fill="#feb534"/><rect x="16" width="2" height="20" fill="#feb534"/></g><g transform="translate(741.82,704.73) scale(1.8545000000000003) rotate(0)"><rect width="2" height="20" fill="#f8dda3"/><rect x="4" width="2" height="20" fill="#f8dda3"/><rect x="8" width="2" height="20" fill="#f8dda3"/><rect x="12" width="2" height="20" fill="#f8dda3"/><rect x="16" width="2" height="20" fill="#f8dda3"/></g><g transform="translate(816,667.64) scale(3.7090000000000005) rotate(0)"><rect width="2" height="20" fill="#feb633"/><rect x="4" width="2" height="20" fill="#feb633"/><rect x="8" width="2" height="20" fill="#feb633"/><rect x="12" width="2" height="20" fill="#feb633"/><rect x="16" width="2" height="20" fill="#feb633"/></g><rect x="890.18" y="667.64" width="74.18" height="74.18" fill="#f9d78e"/><rect x="1038.5454545454545" y="667.6363636363637" width="74.18181818181819" height="74.18181818181819" fill="#febd2f"/><g transform="translate(1075.64,704.73) scale(1.8545000000000003) rotate(0)"><rect width="20" height="2" fill="#fbca5f"/><rect y="4" width="20" height="2" fill="#fbca5f"/><rect y="8" width="20" height="2" fill="#fbca5f"/><rect y="12" width="20" height="2" fill="#fbca5f"/><rect y="16" width="20" height="2" fill="#fbca5f"/></g><g transform="translate(1112.73,667.64) scale(3.7090000000000005) rotate(0)"><rect width="20" height="2" fill="#fcc95c"/><rect y="4" width="20" height="2" fill="#fcc95c"/><rect y="8" width="20" height="2" fill="#fcc95c"/><rect y="12" width="20" height="2" fill="#fcc95c"/><rect y="16" width="20" height="2" fill="#fcc95c"/></g><g transform="translate(0,741.82) scale(3.7090000000000005) rotate(0)"><rect width="20" height="2" fill="#fad27c"/><rect y="4" width="20" height="2" fill="#fad27c"/><rect y="8" width="20" height="2" fill="#fad27c"/><rect y="12" width="20" height="2" fill="#fad27c"/><rect y="16" width="20" height="2" fill="#fad27c"/></g><rect x="222.54545454545456" y="741.8181818181819" width="74.18181818181819" height="74.18181818181819" fill="#febd2f"/><g transform="translate(259.64,778.91) scale(1.8545000000000003) rotate(0)"><rect width="20" height="2" fill="#f5eedf"/><rect y="4" width="20" height="2" fill="#f5eedf"/><rect y="8" width="20" height="2" fill="#f5eedf"/><rect y="12" width="20" height="2" fill="#f5eedf"/><rect y="16" width="20" height="2" fill="#f5eedf"/></g><rect x="370.91" y="741.82" width="74.18" height="74.18" fill="#f9d78e"/><rect x="445.09" y="741.82" width="74.18" height="74.18" fill="#fe9943"/><rect x="593.4545454545455" y="741.8181818181819" width="74.18181818181819" height="74.18181818181819" fill="#febd2f"/><rect x="630.55" y="741.82" width="37.09" height="37.09" fill="#f5ebd5"/><rect x="593.45" y="778.91" width="37.09" height="37.09" fill="#fd874d"/><g transform="translate(630.55,778.91) scale(1.8545000000000003) rotate(0)"><rect width="20" height="2" fill="#f6e6c3"/><rect y="4" width="20" height="2" fill="#f6e6c3"/><rect y="8" width="20" height="2" fill="#f6e6c3"/><rect y="12" width="20" height="2" fill="#f6e6c3"/><rect y="16" width="20" height="2" fill="#f6e6c3"/></g><g transform="translate(890.18,741.82) scale(3.7090000000000005) rotate(0)"><rect width="20" height="2" fill="#f6e5bf"/><rect y="4" width="20" height="2" fill="#f6e5bf"/><rect y="8" width="20" height="2" fill="#f6e5bf"/><rect y="12" width="20" height="2" fill="#f6e5bf"/><rect y="16" width="20" height="2" fill="#f6e5bf"/></g><rect x="964.3636363636365" y="741.8181818181819" width="74.18181818181819" height="74.18181818181819" fill="#febd2f"/><g transform="translate(964.36,741.82) scale(1.8545000000000003) rotate(0)"><rect width="20" height="2" fill="#fd9247"/><rect y="4" width="20" height="2" fill="#fd9247"/><rect y="8" width="20" height="2" fill="#fd9247"/><rect y="12" width="20" height="2" fill="#fd9247"/><rect y="16" width="20" height="2" fill="#fd9247"/></g><g transform="translate(1001.45,741.82) scale(1.8545000000000003) rotate(0)"><rect width="20" height="2" fill="#fbcd69"/><rect y="4" width="20" height="2" fill="#fbcd69"/><rect y="8" width="20" height="2" fill="#fbcd69"/><rect y="12" width="20" height="2" fill="#fbcd69"/><rect y="16" width="20" height="2" fill="#fbcd69"/></g><g transform="translate(964.36,778.91) scale(1.8545000000000003) rotate(0)"><rect width="2" height="20" fill="#f8dca0"/><rect x="4" width="2" height="20" fill="#f8dca0"/><rect x="8" width="2" height="20" fill="#f8dca0"/><rect x="12" width="2" height="20" fill="#f8dca0"/><rect x="16" width="2" height="20" fill="#f8dca0"/></g><g transform="translate(1038.55,741.82) scale(3.7090000000000005) rotate(0)"><rect width="20" height="2" fill="#fe9943"/><rect y="4" width="20" height="2" fill="#fe9943"/><rect y="8" width="20" height="2" fill="#fe9943"/><rect y="12" width="20" height="2" fill="#fe9943"/><rect y="16" width="20" height="2" fill="#fe9943"/></g></g></svg>